<?xml version="1.0" encoding="UTF-8"?>
<svg width="574px" height="671px" viewBox="0 0 574 671" version="1.1" xmlns="http://www.w3.org/2000/svg" xmlns:xlink="http://www.w3.org/1999/xlink">
    <title>howitworks@2x</title>
    <defs>
        <polygon id="path-1" points="0 0.255513461 573.490811 0.255513461 573.490811 22.6413841 0 22.6413841"></polygon>
        <polygon id="path-3" points="0 669.974006 573.490993 669.974006 573.490993 0.859314486 0 0.859314486"></polygon>
    </defs>
    <g id="screens" stroke="none" stroke-width="1" fill="none" fill-rule="evenodd">
        <g id="landing-page" transform="translate(-219.000000, -1923.000000)">
            <g id="howitworks" transform="translate(219.000000, 1923.000000)">
                <g id="Group-40">
                    <g id="Group-3" transform="translate(0.000000, 647.332440)">
                        <mask id="mask-2" fill="white">
                            <use xlink:href="#path-1"></use>
                        </mask>
                        <g id="Clip-2"></g>
                        <path d="M573.490811,11.4484488 C573.490811,17.6293231 445.111021,22.6413841 286.746225,22.6413841 C128.381428,22.6413841 -0.000181969937,17.6293231 -0.000181969937,11.4484488 C-0.000181969937,5.26757444 128.381428,0.255513461 286.746225,0.255513461 C445.111021,0.255513461 573.490811,5.26757444 573.490811,11.4484488" id="Fill-1" fill="#F4F5F7" mask="url(#mask-2)"></path>
                    </g>
                    <path d="M402.461271,656.391193 L59.5407453,656.391193 C46.1150033,656.391193 35.2313814,645.502295 35.2313814,632.070045 L35.2313814,25.1810094 C35.2313814,11.7487588 46.1150033,0.859860661 59.5407453,0.859860661 L402.461271,0.859860661 C415.887013,0.859860661 426.770635,11.7487588 426.770635,25.1810094 L426.770635,632.070045 C426.770635,645.502295 415.887013,656.391193 402.461271,656.391193" id="Fill-4" fill="#7A30E3"></path>
                    <path d="M380.869992,603.582313 L81.132752,603.582313 C67.1319851,603.582313 55.7825202,592.227346 55.7825202,578.219792 L55.7825202,79.032719 C55.7825202,65.0251646 67.1319851,53.668377 81.132752,53.668377 L380.869992,53.668377 C394.870759,53.668377 406.220224,65.0251646 406.220224,79.032719 L406.220224,578.219792 C406.220224,592.227346 394.870759,603.582313 380.869992,603.582313" id="Fill-6" fill="#7A30E3"></path>
                    <mask id="mask-4" fill="white">
                        <use xlink:href="#path-3"></use>
                    </mask>
                    <g id="Clip-9"></g>
                    <polygon id="Fill-8" fill="#393499" mask="url(#mask-4)" points="55.7810644 317.709684 343.550142 317.709684 343.550142 241.820563 55.7810644 241.820563"></polygon>
                    <path d="M392.886013,428.40268 L389.326681,428.40268 C388.933626,428.40268 388.615179,428.084079 388.615179,427.690833 C388.615179,427.297587 388.933626,426.978986 389.326681,426.978986 L391.463008,426.978986 L391.463008,424.841623 C391.463008,424.448377 391.781456,424.129775 392.174511,424.129775 C392.567566,424.129775 392.886013,424.448377 392.886013,424.841623 L392.886013,428.40268 Z" id="Fill-10" fill="#FFFFFF" mask="url(#mask-4)"></path>
                    <path d="M87.7237031,428.40268 L82.0335032,428.40268 C81.6404482,428.40268 81.3201811,428.084079 81.3201811,427.690833 C81.3201811,427.297587 81.6404482,426.978986 82.0335032,426.978986 L87.7237031,426.978986 C88.1167582,426.978986 88.4370253,427.297587 88.4370253,427.690833 C88.4370253,428.084079 88.1167582,428.40268 87.7237031,428.40268 M104.796123,428.40268 L99.1059227,428.40268 C98.7128676,428.40268 98.3926005,428.084079 98.3926005,427.690833 C98.3926005,427.297587 98.7128676,426.978986 99.1059227,426.978986 L104.796123,426.978986 C105.187358,426.978986 105.507625,427.297587 105.507625,427.690833 C105.507625,428.084079 105.187358,428.40268 104.796123,428.40268 M121.868542,428.40268 L116.176522,428.40268 C115.783467,428.40268 115.4632,428.084079 115.4632,427.690833 C115.4632,427.297587 115.783467,426.978986 116.176522,426.978986 L121.868542,426.978986 C122.259777,426.978986 122.580045,427.297587 122.580045,427.690833 C122.580045,428.084079 122.259777,428.40268 121.868542,428.40268 M138.940962,428.40268 L133.248942,428.40268 C132.855887,428.40268 132.537439,428.084079 132.537439,427.690833 C132.537439,427.297587 132.855887,426.978986 133.248942,426.978986 L138.940962,426.978986 C139.332197,426.978986 139.652464,427.297587 139.652464,427.690833 C139.652464,428.084079 139.332197,428.40268 138.940962,428.40268 M156.011561,428.40268 L150.319542,428.40268 C149.928306,428.40268 149.609859,428.084079 149.609859,427.690833 C149.609859,427.297587 149.928306,426.978986 150.319542,426.978986 L156.011561,426.978986 C156.404616,426.978986 156.723064,427.297587 156.723064,427.690833 C156.723064,428.084079 156.404616,428.40268 156.011561,428.40268 M173.083981,428.40268 L167.391961,428.40268 C166.998906,428.40268 166.680459,428.084079 166.680459,427.690833 C166.680459,427.297587 166.998906,426.978986 167.391961,426.978986 L173.083981,426.978986 C173.475216,426.978986 173.793664,427.297587 173.793664,427.690833 C173.793664,428.084079 173.475216,428.40268 173.083981,428.40268 M190.154581,428.40268 L184.4662,428.40268 C184.073145,428.40268 183.754698,428.084079 183.754698,427.690833 C183.754698,427.297587 184.073145,426.978986 184.4662,426.978986 L190.154581,426.978986 C190.547636,426.978986 190.866083,427.297587 190.866083,427.690833 C190.866083,428.084079 190.547636,428.40268 190.154581,428.40268 M207.22882,428.40268 L201.5368,428.40268 C201.143745,428.40268 200.825298,428.084079 200.825298,427.690833 C200.825298,427.297587 201.143745,426.978986 201.5368,426.978986 L207.22882,426.978986 C207.620055,426.978986 207.940322,427.297587 207.940322,427.690833 C207.940322,428.084079 207.620055,428.40268 207.22882,428.40268 M224.299419,428.40268 L218.6074,428.40268 C218.216164,428.40268 217.895897,428.084079 217.895897,427.690833 C217.895897,427.297587 218.216164,426.978986 218.6074,426.978986 L224.299419,426.978986 C224.692475,426.978986 225.010922,427.297587 225.010922,427.690833 C225.010922,428.084079 224.692475,428.40268 224.299419,428.40268 M241.370019,428.40268 L235.679819,428.40268 C235.286764,428.40268 234.968317,428.084079 234.968317,427.690833 C234.968317,427.297587 235.286764,426.978986 235.679819,426.978986 L241.370019,426.978986 C241.763074,426.978986 242.081522,427.297587 242.081522,427.690833 C242.081522,428.084079 241.763074,428.40268 241.370019,428.40268 M258.442439,428.40268 L252.754058,428.40268 C252.361003,428.40268 252.042556,428.084079 252.042556,427.690833 C252.042556,427.297587 252.361003,426.978986 252.754058,426.978986 L258.442439,426.978986 C258.835494,426.978986 259.153941,427.297587 259.153941,427.690833 C259.153941,428.084079 258.835494,428.40268 258.442439,428.40268 M275.516678,428.40268 L269.824658,428.40268 C269.431603,428.40268 269.113156,428.084079 269.113156,427.690833 C269.113156,427.297587 269.431603,426.978986 269.824658,426.978986 L275.516678,426.978986 C275.907913,426.978986 276.22818,427.297587 276.22818,427.690833 C276.22818,428.084079 275.907913,428.40268 275.516678,428.40268 M292.587278,428.40268 L286.897078,428.40268 C286.504023,428.40268 286.185575,428.084079 286.185575,427.690833 C286.185575,427.297587 286.504023,426.978986 286.897078,426.978986 L292.587278,426.978986 C292.980333,426.978986 293.29878,427.297587 293.29878,427.690833 C293.29878,428.084079 292.980333,428.40268 292.587278,428.40268 M309.657877,428.40268 L303.967677,428.40268 C303.574622,428.40268 303.256175,428.084079 303.256175,427.690833 C303.256175,427.297587 303.574622,426.978986 303.967677,426.978986 L309.657877,426.978986 C310.050932,426.978986 310.36938,427.297587 310.36938,427.690833 C310.36938,428.084079 310.050932,428.40268 309.657877,428.40268 M326.730297,428.40268 L321.041917,428.40268 C320.648862,428.40268 320.330414,428.084079 320.330414,427.690833 C320.330414,427.297587 320.648862,426.978986 321.041917,426.978986 L326.730297,426.978986 C327.123352,426.978986 327.441799,427.297587 327.441799,427.690833 C327.441799,428.084079 327.123352,428.40268 326.730297,428.40268 M343.804536,428.40268 L338.112516,428.40268 C337.719461,428.40268 337.401014,428.084079 337.401014,427.690833 C337.401014,427.297587 337.719461,426.978986 338.112516,426.978986 L343.804536,426.978986 C344.195771,426.978986 344.514219,427.297587 344.514219,427.690833 C344.514219,428.084079 344.195771,428.40268 343.804536,428.40268 M360.875136,428.40268 L355.183116,428.40268 C354.791881,428.40268 354.473433,428.084079 354.473433,427.690833 C354.473433,427.297587 354.791881,426.978986 355.183116,426.978986 L360.875136,426.978986 C361.268191,426.978986 361.586638,427.297587 361.586638,427.690833 C361.586638,428.084079 361.268191,428.40268 360.875136,428.40268 M377.947555,428.40268 L372.255536,428.40268 C371.862481,428.40268 371.544033,428.084079 371.544033,427.690833 C371.544033,427.297587 371.862481,426.978986 372.255536,426.978986 L377.947555,426.978986 C378.338791,426.978986 378.657238,427.297587 378.657238,427.690833 C378.657238,428.084079 378.338791,428.40268 377.947555,428.40268" id="Fill-11" fill="#FFFFFF" mask="url(#mask-4)"></path>
                    <path d="M70.6501919,428.40268 L67.0908599,428.40268 L67.0908599,424.841623 C67.0908599,424.448377 67.4093073,424.129775 67.8023624,424.129775 C68.1954174,424.129775 68.5156845,424.448377 68.5156845,424.841623 L68.5156845,426.978986 L70.6501919,426.978986 C71.0432469,426.978986 71.363514,427.297587 71.363514,427.690833 C71.363514,428.084079 71.0432469,428.40268 70.6501919,428.40268" id="Fill-12" fill="#FFFFFF" mask="url(#mask-4)"></path>
                    <path d="M67.8025443,374.506367 C67.4094893,374.506367 67.0910419,374.187765 67.0910419,373.794519 L67.0910419,367.415201 C67.0910419,367.021956 67.4094893,366.703354 67.8025443,366.703354 C68.1955994,366.703354 68.5140468,367.021956 68.5140468,367.415201 L68.5140468,373.794519 C68.5140468,374.187765 68.1955994,374.506367 67.8025443,374.506367 M67.8025443,393.649781 C67.4094893,393.649781 67.0910419,393.33118 67.0910419,392.937934 L67.0910419,386.558616 C67.0910419,386.165371 67.4094893,385.846769 67.8025443,385.846769 C68.1955994,385.846769 68.5140468,386.165371 68.5140468,386.558616 L68.5140468,392.937934 C68.5140468,393.33118 68.1955994,393.649781 67.8025443,393.649781 M67.8025443,412.791376 C67.4094893,412.791376 67.0910419,412.472774 67.0910419,412.081349 L67.0910419,405.69839 C67.0910419,405.305144 67.4094893,404.986543 67.8025443,404.986543 C68.1955994,404.986543 68.5140468,405.305144 68.5140468,405.69839 L68.5140468,412.081349 C68.5140468,412.472774 68.1955994,412.791376 67.8025443,412.791376" id="Fill-13" fill="#FFFFFF" mask="url(#mask-4)"></path>
                    <path d="M67.8025443,355.363498 C67.4094893,355.363498 67.0910419,355.044896 67.0910419,354.65165 L67.0910419,351.090593 L70.6503738,351.090593 C71.0434289,351.090593 71.363696,351.409195 71.363696,351.80244 C71.363696,352.195686 71.0434289,352.514288 70.6503738,352.514288 L68.5140468,352.514288 L68.5140468,354.65165 C68.5140468,355.044896 68.1955994,355.363498 67.8025443,355.363498" id="Fill-14" fill="#FFFFFF" mask="url(#mask-4)"></path>
                    <path d="M87.7217015,352.514288 L82.0315016,352.514288 C81.6384465,352.514288 81.3181794,352.195686 81.3181794,351.80244 C81.3181794,351.409195 81.6384465,351.090593 82.0315016,351.090593 L87.7217015,351.090593 C88.1147565,351.090593 88.4332039,351.409195 88.4332039,351.80244 C88.4332039,352.195686 88.1147565,352.514288 87.7217015,352.514288 M104.794121,352.514288 L99.1021013,352.514288 C98.710866,352.514288 98.3905989,352.195686 98.3905989,351.80244 C98.3905989,351.409195 98.710866,351.090593 99.1021013,351.090593 L104.794121,351.090593 C105.187176,351.090593 105.505623,351.409195 105.505623,351.80244 C105.505623,352.195686 105.187176,352.514288 104.794121,352.514288 M121.864721,352.514288 L116.17634,352.514288 C115.783285,352.514288 115.463018,352.195686 115.463018,351.80244 C115.463018,351.409195 115.783285,351.090593 116.17634,351.090593 L121.864721,351.090593 C122.257776,351.090593 122.578043,351.409195 122.578043,351.80244 C122.578043,352.195686 122.257776,352.514288 121.864721,352.514288 M138.93896,352.514288 L133.24694,352.514288 C132.853885,352.514288 132.535438,352.195686 132.535438,351.80244 C132.535438,351.409195 132.853885,351.090593 133.24694,351.090593 L138.93896,351.090593 C139.330195,351.090593 139.648643,351.409195 139.648643,351.80244 C139.648643,352.195686 139.330195,352.514288 138.93896,352.514288 M156.00956,352.514288 L150.31754,352.514288 C149.926305,352.514288 149.606038,352.195686 149.606038,351.80244 C149.606038,351.409195 149.926305,351.090593 150.31754,351.090593 L156.00956,351.090593 C156.402615,351.090593 156.721062,351.409195 156.721062,351.80244 C156.721062,352.195686 156.402615,352.514288 156.00956,352.514288 M173.080159,352.514288 L167.391779,352.514288 C166.998724,352.514288 166.680277,352.195686 166.680277,351.80244 C166.680277,351.409195 166.998724,351.090593 167.391779,351.090593 L173.080159,351.090593 C173.473214,351.090593 173.791662,351.409195 173.791662,351.80244 C173.791662,352.195686 173.473214,352.514288 173.080159,352.514288 M190.154399,352.514288 L184.462379,352.514288 C184.071144,352.514288 183.752696,352.195686 183.752696,351.80244 C183.752696,351.409195 184.071144,351.090593 184.462379,351.090593 L190.154399,351.090593 C190.547454,351.090593 190.865901,351.409195 190.865901,351.80244 C190.865901,352.195686 190.547454,352.514288 190.154399,352.514288 M207.226818,352.514288 L201.534798,352.514288 C201.141743,352.514288 200.823296,352.195686 200.823296,351.80244 C200.823296,351.409195 201.141743,351.090593 201.534798,351.090593 L207.226818,351.090593 C207.618053,351.090593 207.936501,351.409195 207.936501,351.80244 C207.936501,352.195686 207.618053,352.514288 207.226818,352.514288 M224.297418,352.514288 L218.605398,352.514288 C218.212343,352.514288 217.893896,352.195686 217.893896,351.80244 C217.893896,351.409195 218.212343,351.090593 218.605398,351.090593 L224.297418,351.090593 C224.690473,351.090593 225.00892,351.409195 225.00892,351.80244 C225.00892,352.195686 224.690473,352.514288 224.297418,352.514288 M241.368018,352.514288 L235.679637,352.514288 C235.286582,352.514288 234.968135,352.195686 234.968135,351.80244 C234.968135,351.409195 235.286582,351.090593 235.679637,351.090593 L241.368018,351.090593 C241.761073,351.090593 242.07952,351.409195 242.07952,351.80244 C242.07952,352.195686 241.761073,352.514288 241.368018,352.514288 M258.442257,352.514288 L252.750237,352.514288 C252.359002,352.514288 252.038735,352.195686 252.038735,351.80244 C252.038735,351.409195 252.359002,351.090593 252.750237,351.090593 L258.442257,351.090593 C258.835312,351.090593 259.153759,351.409195 259.153759,351.80244 C259.153759,352.195686 258.835312,352.514288 258.442257,352.514288 M275.512856,352.514288 L269.822657,352.514288 C269.429601,352.514288 269.111154,352.195686 269.111154,351.80244 C269.111154,351.409195 269.429601,351.090593 269.822657,351.090593 L275.512856,351.090593 C275.905912,351.090593 276.224359,351.409195 276.224359,351.80244 C276.224359,352.195686 275.905912,352.514288 275.512856,352.514288 M292.585276,352.514288 L286.893256,352.514288 C286.502021,352.514288 286.181754,352.195686 286.181754,351.80244 C286.181754,351.409195 286.502021,351.090593 286.893256,351.090593 L292.585276,351.090593 C292.978331,351.090593 293.296778,351.409195 293.296778,351.80244 C293.296778,352.195686 292.978331,352.514288 292.585276,352.514288 M309.655876,352.514288 L303.967495,352.514288 C303.57444,352.514288 303.255993,352.195686 303.255993,351.80244 C303.255993,351.409195 303.57444,351.090593 303.967495,351.090593 L309.655876,351.090593 C310.048931,351.090593 310.367378,351.409195 310.367378,351.80244 C310.367378,352.195686 310.048931,352.514288 309.655876,352.514288 M326.730115,352.514288 L321.039915,352.514288 C320.64686,352.514288 320.328412,352.195686 320.328412,351.80244 C320.328412,351.409195 320.64686,351.090593 321.039915,351.090593 L326.730115,351.090593 C327.12317,351.090593 327.441617,351.409195 327.441617,351.80244 C327.441617,352.195686 327.12317,352.514288 326.730115,352.514288 M343.800715,352.514288 L338.110515,352.514288 C337.71746,352.514288 337.399012,352.195686 337.399012,351.80244 C337.399012,351.409195 337.71746,351.090593 338.110515,351.090593 L343.800715,351.090593 C344.19377,351.090593 344.512217,351.409195 344.512217,351.80244 C344.512217,352.195686 344.19377,352.514288 343.800715,352.514288 M360.873134,352.514288 L355.181114,352.514288 C354.789879,352.514288 354.469612,352.195686 354.469612,351.80244 C354.469612,351.409195 354.789879,351.090593 355.181114,351.090593 L360.873134,351.090593 C361.266189,351.090593 361.584637,351.409195 361.584637,351.80244 C361.584637,352.195686 361.266189,352.514288 360.873134,352.514288 M377.943734,352.514288 L372.255354,352.514288 C371.862299,352.514288 371.543851,352.195686 371.543851,351.80244 C371.543851,351.409195 371.862299,351.090593 372.255354,351.090593 L377.943734,351.090593 C378.336789,351.090593 378.655236,351.409195 378.655236,351.80244 C378.655236,352.195686 378.336789,352.514288 377.943734,352.514288" id="Fill-15" fill="#FFFFFF" mask="url(#mask-4)"></path>
                    <path d="M392.174693,355.363498 C391.781638,355.363498 391.46319,355.044896 391.46319,354.65165 L391.46319,352.514288 L389.326863,352.514288 C388.933808,352.514288 388.615361,352.195686 388.615361,351.80244 C388.615361,351.409195 388.933808,351.090593 389.326863,351.090593 L392.886195,351.090593 L392.886195,354.65165 C392.886195,355.044896 392.567748,355.363498 392.174693,355.363498" id="Fill-16" fill="#FFFFFF" mask="url(#mask-4)"></path>
                    <path d="M392.174693,374.506367 C391.781638,374.506367 391.46319,374.187765 391.46319,373.794519 L391.46319,367.413381 C391.46319,367.020135 391.781638,366.701533 392.174693,366.701533 C392.567748,366.701533 392.886195,367.020135 392.886195,367.413381 L392.886195,373.794519 C392.886195,374.187765 392.567748,374.506367 392.174693,374.506367 M392.174693,393.647961 C391.781638,393.647961 391.46319,393.327538 391.46319,392.936113 L391.46319,386.556796 C391.46319,386.16355 391.781638,385.844948 392.174693,385.844948 C392.567748,385.844948 392.886195,386.16355 392.886195,386.556796 L392.886195,392.936113 C392.886195,393.327538 392.567748,393.647961 392.174693,393.647961 M392.174693,412.789555 C391.781638,412.789555 391.46319,412.470953 391.46319,412.077708 L391.46319,405.69839 C391.46319,405.305144 391.781638,404.986543 392.174693,404.986543 C392.567748,404.986543 392.886195,405.305144 392.886195,405.69839 L392.886195,412.077708 C392.886195,412.470953 392.567748,412.789555 392.174693,412.789555" id="Fill-17" fill="#FFFFFF" mask="url(#mask-4)"></path>
                    <path d="M392.886013,308.608779 L389.326681,308.608779 C388.933626,308.608779 388.615179,308.290177 388.615179,307.896932 C388.615179,307.503686 388.933626,307.185084 389.326681,307.185084 L391.463008,307.185084 L391.463008,305.047722 C391.463008,304.654476 391.781456,304.334054 392.174511,304.334054 C392.567566,304.334054 392.886013,304.654476 392.886013,305.047722 L392.886013,308.608779 Z" id="Fill-18" fill="#FFFFFF" mask="url(#mask-4)"></path>
                    <path d="M87.7237031,308.608779 L82.0335032,308.608779 C81.6404482,308.608779 81.3201811,308.290177 81.3201811,307.896932 C81.3201811,307.503686 81.6404482,307.185084 82.0335032,307.185084 L87.7237031,307.185084 C88.1167582,307.185084 88.4370253,307.503686 88.4370253,307.896932 C88.4370253,308.290177 88.1167582,308.608779 87.7237031,308.608779 M104.796123,308.608779 L99.1059227,308.608779 C98.7128676,308.608779 98.3926005,308.290177 98.3926005,307.896932 C98.3926005,307.503686 98.7128676,307.185084 99.1059227,307.185084 L104.796123,307.185084 C105.187358,307.185084 105.507625,307.503686 105.507625,307.896932 C105.507625,308.290177 105.187358,308.608779 104.796123,308.608779 M121.868542,308.608779 L116.176522,308.608779 C115.783467,308.608779 115.4632,308.290177 115.4632,307.896932 C115.4632,307.503686 115.783467,307.185084 116.176522,307.185084 L121.868542,307.185084 C122.259777,307.185084 122.580045,307.503686 122.580045,307.896932 C122.580045,308.290177 122.259777,308.608779 121.868542,308.608779 M138.940962,308.608779 L133.248942,308.608779 C132.855887,308.608779 132.537439,308.290177 132.537439,307.896932 C132.537439,307.503686 132.855887,307.185084 133.248942,307.185084 L138.940962,307.185084 C139.332197,307.185084 139.652464,307.503686 139.652464,307.896932 C139.652464,308.290177 139.332197,308.608779 138.940962,308.608779 M156.011561,308.608779 L150.319542,308.608779 C149.928306,308.608779 149.609859,308.290177 149.609859,307.896932 C149.609859,307.503686 149.928306,307.185084 150.319542,307.185084 L156.011561,307.185084 C156.404616,307.185084 156.723064,307.503686 156.723064,307.896932 C156.723064,308.290177 156.404616,308.608779 156.011561,308.608779 M173.083981,308.608779 L167.391961,308.608779 C166.998906,308.608779 166.680459,308.290177 166.680459,307.896932 C166.680459,307.503686 166.998906,307.185084 167.391961,307.185084 L173.083981,307.185084 C173.475216,307.185084 173.793664,307.503686 173.793664,307.896932 C173.793664,308.290177 173.475216,308.608779 173.083981,308.608779 M190.154581,308.608779 L184.4662,308.608779 C184.073145,308.608779 183.754698,308.290177 183.754698,307.896932 C183.754698,307.503686 184.073145,307.185084 184.4662,307.185084 L190.154581,307.185084 C190.547636,307.185084 190.866083,307.503686 190.866083,307.896932 C190.866083,308.290177 190.547636,308.608779 190.154581,308.608779 M207.22882,308.608779 L201.5368,308.608779 C201.143745,308.608779 200.825298,308.290177 200.825298,307.896932 C200.825298,307.503686 201.143745,307.185084 201.5368,307.185084 L207.22882,307.185084 C207.620055,307.185084 207.940322,307.503686 207.940322,307.896932 C207.940322,308.290177 207.620055,308.608779 207.22882,308.608779 M224.299419,308.608779 L218.6074,308.608779 C218.216164,308.608779 217.895897,308.290177 217.895897,307.896932 C217.895897,307.503686 218.216164,307.185084 218.6074,307.185084 L224.299419,307.185084 C224.692475,307.185084 225.010922,307.503686 225.010922,307.896932 C225.010922,308.290177 224.692475,308.608779 224.299419,308.608779 M241.370019,308.608779 L235.679819,308.608779 C235.286764,308.608779 234.968317,308.290177 234.968317,307.896932 C234.968317,307.503686 235.286764,307.185084 235.679819,307.185084 L241.370019,307.185084 C241.763074,307.185084 242.081522,307.503686 242.081522,307.896932 C242.081522,308.290177 241.763074,308.608779 241.370019,308.608779 M258.442439,308.608779 L252.754058,308.608779 C252.361003,308.608779 252.042556,308.290177 252.042556,307.896932 C252.042556,307.503686 252.361003,307.185084 252.754058,307.185084 L258.442439,307.185084 C258.835494,307.185084 259.153941,307.503686 259.153941,307.896932 C259.153941,308.290177 258.835494,308.608779 258.442439,308.608779 M275.516678,308.608779 L269.824658,308.608779 C269.431603,308.608779 269.113156,308.290177 269.113156,307.896932 C269.113156,307.503686 269.431603,307.185084 269.824658,307.185084 L275.516678,307.185084 C275.907913,307.185084 276.22818,307.503686 276.22818,307.896932 C276.22818,308.290177 275.907913,308.608779 275.516678,308.608779 M292.587278,308.608779 L286.897078,308.608779 C286.504023,308.608779 286.185575,308.290177 286.185575,307.896932 C286.185575,307.503686 286.504023,307.185084 286.897078,307.185084 L292.587278,307.185084 C292.980333,307.185084 293.29878,307.503686 293.29878,307.896932 C293.29878,308.290177 292.980333,308.608779 292.587278,308.608779 M309.657877,308.608779 L303.967677,308.608779 C303.574622,308.608779 303.256175,308.290177 303.256175,307.896932 C303.256175,307.503686 303.574622,307.185084 303.967677,307.185084 L309.657877,307.185084 C310.050932,307.185084 310.36938,307.503686 310.36938,307.896932 C310.36938,308.290177 310.050932,308.608779 309.657877,308.608779 M326.730297,308.608779 L321.041917,308.608779 C320.648862,308.608779 320.330414,308.290177 320.330414,307.896932 C320.330414,307.503686 320.648862,307.185084 321.041917,307.185084 L326.730297,307.185084 C327.123352,307.185084 327.441799,307.503686 327.441799,307.896932 C327.441799,308.290177 327.123352,308.608779 326.730297,308.608779 M343.804536,308.608779 L338.112516,308.608779 C337.719461,308.608779 337.401014,308.290177 337.401014,307.896932 C337.401014,307.503686 337.719461,307.185084 338.112516,307.185084 L343.804536,307.185084 C344.195771,307.185084 344.514219,307.503686 344.514219,307.896932 C344.514219,308.290177 344.195771,308.608779 343.804536,308.608779 M360.875136,308.608779 L355.183116,308.608779 C354.791881,308.608779 354.473433,308.290177 354.473433,307.896932 C354.473433,307.503686 354.791881,307.185084 355.183116,307.185084 L360.875136,307.185084 C361.268191,307.185084 361.586638,307.503686 361.586638,307.896932 C361.586638,308.290177 361.268191,308.608779 360.875136,308.608779 M377.947555,308.608779 L372.255536,308.608779 C371.862481,308.608779 371.544033,308.290177 371.544033,307.896932 C371.544033,307.503686 371.862481,307.185084 372.255536,307.185084 L377.947555,307.185084 C378.338791,307.185084 378.657238,307.503686 378.657238,307.896932 C378.657238,308.290177 378.338791,308.608779 377.947555,308.608779" id="Fill-19" fill="#FFFFFF" mask="url(#mask-4)"></path>
                    <path d="M70.6501919,308.608779 L67.0908599,308.608779 L67.0908599,305.047722 C67.0908599,304.654476 67.4093073,304.334054 67.8023624,304.334054 C68.1954174,304.334054 68.5156845,304.654476 68.5156845,305.047722 L68.5156845,307.185084 L70.6501919,307.185084 C71.0432469,307.185084 71.363514,307.503686 71.363514,307.896932 C71.363514,308.290177 71.0432469,308.608779 70.6501919,308.608779" id="Fill-20" fill="#FFFFFF" mask="url(#mask-4)"></path>
                    <path d="M67.8025443,254.712647 C67.4094893,254.712647 67.0910419,254.392225 67.0910419,254.0008 L67.0910419,247.617841 C67.0910419,247.224596 67.4094893,246.905994 67.8025443,246.905994 C68.1955994,246.905994 68.5140468,247.224596 68.5140468,247.617841 L68.5140468,254.0008 C68.5140468,254.392225 68.1955994,254.712647 67.8025443,254.712647 M67.8025443,273.854242 C67.4094893,273.854242 67.0910419,273.533819 67.0910419,273.142394 L67.0910419,266.761256 C67.0910419,266.36801 67.4094893,266.047588 67.8025443,266.047588 C68.1955994,266.047588 68.5140468,266.36801 68.5140468,266.761256 L68.5140468,273.142394 C68.5140468,273.533819 68.1955994,273.854242 67.8025443,273.854242 M67.8025443,292.997657 C67.4094893,292.997657 67.0910419,292.677234 67.0910419,292.283989 L67.0910419,285.904671 C67.0910419,285.511425 67.4094893,285.191003 67.8025443,285.191003 C68.1955994,285.191003 68.5140468,285.511425 68.5140468,285.904671 L68.5140468,292.283989 C68.5140468,292.677234 68.1955994,292.997657 67.8025443,292.997657" id="Fill-21" fill="#FFFFFF" mask="url(#mask-4)"></path>
                    <path d="M67.8025443,235.569779 C67.4094893,235.569779 67.0910419,235.249356 67.0910419,234.857931 L67.0910419,231.295053 L70.6503738,231.295053 C71.0434289,231.295053 71.363696,231.615476 71.363696,232.008721 C71.363696,232.400146 71.0434289,232.720569 70.6503738,232.720569 L68.5140468,232.720569 L68.5140468,234.857931 C68.5140468,235.249356 68.1955994,235.569779 67.8025443,235.569779" id="Fill-22" fill="#FFFFFF" mask="url(#mask-4)"></path>
                    <path d="M87.7217015,232.720751 L82.0315016,232.720751 C81.6384465,232.720751 81.3181794,232.400328 81.3181794,232.008903 C81.3181794,231.615658 81.6384465,231.295235 82.0315016,231.295235 L87.7217015,231.295235 C88.1147565,231.295235 88.4332039,231.615658 88.4332039,232.008903 C88.4332039,232.400328 88.1147565,232.720751 87.7217015,232.720751 M104.794121,232.720751 L99.1021013,232.720751 C98.710866,232.720751 98.3905989,232.400328 98.3905989,232.008903 C98.3905989,231.615658 98.710866,231.295235 99.1021013,231.295235 L104.794121,231.295235 C105.187176,231.295235 105.505623,231.615658 105.505623,232.008903 C105.505623,232.400328 105.187176,232.720751 104.794121,232.720751 M121.864721,232.720751 L116.17634,232.720751 C115.783285,232.720751 115.463018,232.400328 115.463018,232.008903 C115.463018,231.615658 115.783285,231.295235 116.17634,231.295235 L121.864721,231.295235 C122.257776,231.295235 122.578043,231.615658 122.578043,232.008903 C122.578043,232.400328 122.257776,232.720751 121.864721,232.720751 M138.93896,232.720751 L133.24694,232.720751 C132.853885,232.720751 132.535438,232.400328 132.535438,232.008903 C132.535438,231.615658 132.853885,231.295235 133.24694,231.295235 L138.93896,231.295235 C139.330195,231.295235 139.648643,231.615658 139.648643,232.008903 C139.648643,232.400328 139.330195,232.720751 138.93896,232.720751 M156.00956,232.720751 L150.31754,232.720751 C149.926305,232.720751 149.606038,232.400328 149.606038,232.008903 C149.606038,231.615658 149.926305,231.295235 150.31754,231.295235 L156.00956,231.295235 C156.402615,231.295235 156.721062,231.615658 156.721062,232.008903 C156.721062,232.400328 156.402615,232.720751 156.00956,232.720751 M173.080159,232.720751 L167.391779,232.720751 C166.998724,232.720751 166.680277,232.400328 166.680277,232.008903 C166.680277,231.615658 166.998724,231.295235 167.391779,231.295235 L173.080159,231.295235 C173.473214,231.295235 173.791662,231.615658 173.791662,232.008903 C173.791662,232.400328 173.473214,232.720751 173.080159,232.720751 M190.154399,232.720751 L184.462379,232.720751 C184.071144,232.720751 183.752696,232.400328 183.752696,232.008903 C183.752696,231.615658 184.071144,231.295235 184.462379,231.295235 L190.154399,231.295235 C190.547454,231.295235 190.865901,231.615658 190.865901,232.008903 C190.865901,232.400328 190.547454,232.720751 190.154399,232.720751 M207.226818,232.720751 L201.534798,232.720751 C201.141743,232.720751 200.823296,232.400328 200.823296,232.008903 C200.823296,231.615658 201.141743,231.295235 201.534798,231.295235 L207.226818,231.295235 C207.618053,231.295235 207.936501,231.615658 207.936501,232.008903 C207.936501,232.400328 207.618053,232.720751 207.226818,232.720751 M224.297418,232.720751 L218.605398,232.720751 C218.212343,232.720751 217.893896,232.400328 217.893896,232.008903 C217.893896,231.615658 218.212343,231.295235 218.605398,231.295235 L224.297418,231.295235 C224.690473,231.295235 225.00892,231.615658 225.00892,232.008903 C225.00892,232.400328 224.690473,232.720751 224.297418,232.720751 M241.368018,232.720751 L235.679637,232.720751 C235.286582,232.720751 234.968135,232.400328 234.968135,232.008903 C234.968135,231.615658 235.286582,231.295235 235.679637,231.295235 L241.368018,231.295235 C241.761073,231.295235 242.07952,231.615658 242.07952,232.008903 C242.07952,232.400328 241.761073,232.720751 241.368018,232.720751 M258.442257,232.720751 L252.750237,232.720751 C252.359002,232.720751 252.038735,232.400328 252.038735,232.008903 C252.038735,231.615658 252.359002,231.295235 252.750237,231.295235 L258.442257,231.295235 C258.835312,231.295235 259.153759,231.615658 259.153759,232.008903 C259.153759,232.400328 258.835312,232.720751 258.442257,232.720751 M275.512856,232.720751 L269.822657,232.720751 C269.429601,232.720751 269.111154,232.400328 269.111154,232.008903 C269.111154,231.615658 269.429601,231.295235 269.822657,231.295235 L275.512856,231.295235 C275.905912,231.295235 276.224359,231.615658 276.224359,232.008903 C276.224359,232.400328 275.905912,232.720751 275.512856,232.720751 M292.585276,232.720751 L286.893256,232.720751 C286.502021,232.720751 286.181754,232.400328 286.181754,232.008903 C286.181754,231.615658 286.502021,231.295235 286.893256,231.295235 L292.585276,231.295235 C292.978331,231.295235 293.296778,231.615658 293.296778,232.008903 C293.296778,232.400328 292.978331,232.720751 292.585276,232.720751 M309.655876,232.720751 L303.967495,232.720751 C303.57444,232.720751 303.255993,232.400328 303.255993,232.008903 C303.255993,231.615658 303.57444,231.295235 303.967495,231.295235 L309.655876,231.295235 C310.048931,231.295235 310.367378,231.615658 310.367378,232.008903 C310.367378,232.400328 310.048931,232.720751 309.655876,232.720751 M326.730115,232.720751 L321.039915,232.720751 C320.64686,232.720751 320.328412,232.400328 320.328412,232.008903 C320.328412,231.615658 320.64686,231.295235 321.039915,231.295235 L326.730115,231.295235 C327.12317,231.295235 327.441617,231.615658 327.441617,232.008903 C327.441617,232.400328 327.12317,232.720751 326.730115,232.720751 M343.800715,232.720751 L338.110515,232.720751 C337.71746,232.720751 337.399012,232.400328 337.399012,232.008903 C337.399012,231.615658 337.71746,231.295235 338.110515,231.295235 L343.800715,231.295235 C344.19377,231.295235 344.512217,231.615658 344.512217,232.008903 C344.512217,232.400328 344.19377,232.720751 343.800715,232.720751 M360.873134,232.720751 L355.181114,232.720751 C354.789879,232.720751 354.469612,232.400328 354.469612,232.008903 C354.469612,231.615658 354.789879,231.295235 355.181114,231.295235 L360.873134,231.295235 C361.266189,231.295235 361.584637,231.615658 361.584637,232.008903 C361.584637,232.400328 361.266189,232.720751 360.873134,232.720751 M377.943734,232.720751 L372.255354,232.720751 C371.862299,232.720751 371.543851,232.400328 371.543851,232.008903 C371.543851,231.615658 371.862299,231.295235 372.255354,231.295235 L377.943734,231.295235 C378.336789,231.295235 378.655236,231.615658 378.655236,232.008903 C378.655236,232.400328 378.336789,232.720751 377.943734,232.720751" id="Fill-23" fill="#FFFFFF" mask="url(#mask-4)"></path>
                    <path d="M392.174693,235.569779 C391.781638,235.569779 391.46319,235.249356 391.46319,234.857931 L391.46319,232.720569 L389.326863,232.720569 C388.933808,232.720569 388.615361,232.400146 388.615361,232.008721 C388.615361,231.615476 388.933808,231.295053 389.326863,231.295053 L392.886195,231.295053 L392.886195,234.857931 C392.886195,235.249356 392.567748,235.569779 392.174693,235.569779" id="Fill-24" fill="#FFFFFF" mask="url(#mask-4)"></path>
                    <path d="M392.174693,254.712647 C391.781638,254.712647 391.46319,254.392225 391.46319,254.0008 L391.46319,247.619662 C391.46319,247.226416 391.781638,246.905994 392.174693,246.905994 C392.567748,246.905994 392.886195,247.226416 392.886195,247.619662 L392.886195,254.0008 C392.886195,254.392225 392.567748,254.712647 392.174693,254.712647 M392.174693,273.856062 C391.781638,273.856062 391.46319,273.53564 391.46319,273.142394 L391.46319,266.763077 C391.46319,266.369831 391.781638,266.049409 392.174693,266.049409 C392.567748,266.049409 392.886195,266.369831 392.886195,266.763077 L392.886195,273.142394 C392.886195,273.53564 392.567748,273.856062 392.174693,273.856062 M392.174693,292.997657 C391.781638,292.997657 391.46319,292.679055 391.46319,292.285809 L391.46319,285.904671 C391.46319,285.511425 391.781638,285.191003 392.174693,285.191003 C392.567748,285.191003 392.886195,285.511425 392.886195,285.904671 L392.886195,292.285809 C392.886195,292.679055 392.567748,292.997657 392.174693,292.997657" id="Fill-25" fill="#FFFFFF" mask="url(#mask-4)"></path>
                    <path d="M392.886013,188.813968 L389.326681,188.813968 C388.933626,188.813968 388.615179,188.493545 388.615179,188.10212 C388.615179,187.708875 388.933626,187.388452 389.326681,187.388452 L391.463008,187.388452 L391.463008,185.25291 C391.463008,184.859665 391.781456,184.539242 392.174511,184.539242 C392.567566,184.539242 392.886013,184.859665 392.886013,185.25291 L392.886013,188.813968 Z" id="Fill-26" fill="#FFFFFF" mask="url(#mask-4)"></path>
                    <path d="M87.7237031,188.813968 L82.0335032,188.813968 C81.6404482,188.813968 81.3201811,188.493545 81.3201811,188.10212 C81.3201811,187.708875 81.6404482,187.388452 82.0335032,187.388452 L87.7237031,187.388452 C88.1167582,187.388452 88.4370253,187.708875 88.4370253,188.10212 C88.4370253,188.493545 88.1167582,188.813968 87.7237031,188.813968 M104.796123,188.813968 L99.1059227,188.813968 C98.7128676,188.813968 98.3926005,188.493545 98.3926005,188.10212 C98.3926005,187.708875 98.7128676,187.388452 99.1059227,187.388452 L104.796123,187.388452 C105.187358,187.388452 105.507625,187.708875 105.507625,188.10212 C105.507625,188.493545 105.187358,188.813968 104.796123,188.813968 M121.868542,188.813968 L116.176522,188.813968 C115.783467,188.813968 115.4632,188.493545 115.4632,188.10212 C115.4632,187.708875 115.783467,187.388452 116.176522,187.388452 L121.868542,187.388452 C122.259777,187.388452 122.580045,187.708875 122.580045,188.10212 C122.580045,188.493545 122.259777,188.813968 121.868542,188.813968 M138.940962,188.813968 L133.248942,188.813968 C132.855887,188.813968 132.537439,188.493545 132.537439,188.10212 C132.537439,187.708875 132.855887,187.388452 133.248942,187.388452 L138.940962,187.388452 C139.332197,187.388452 139.652464,187.708875 139.652464,188.10212 C139.652464,188.493545 139.332197,188.813968 138.940962,188.813968 M156.011561,188.813968 L150.319542,188.813968 C149.928306,188.813968 149.609859,188.493545 149.609859,188.10212 C149.609859,187.708875 149.928306,187.388452 150.319542,187.388452 L156.011561,187.388452 C156.404616,187.388452 156.723064,187.708875 156.723064,188.10212 C156.723064,188.493545 156.404616,188.813968 156.011561,188.813968 M173.083981,188.813968 L167.391961,188.813968 C166.998906,188.813968 166.680459,188.493545 166.680459,188.10212 C166.680459,187.708875 166.998906,187.388452 167.391961,187.388452 L173.083981,187.388452 C173.475216,187.388452 173.793664,187.708875 173.793664,188.10212 C173.793664,188.493545 173.475216,188.813968 173.083981,188.813968 M190.154581,188.813968 L184.4662,188.813968 C184.073145,188.813968 183.754698,188.493545 183.754698,188.10212 C183.754698,187.708875 184.073145,187.388452 184.4662,187.388452 L190.154581,187.388452 C190.547636,187.388452 190.866083,187.708875 190.866083,188.10212 C190.866083,188.493545 190.547636,188.813968 190.154581,188.813968 M207.22882,188.813968 L201.5368,188.813968 C201.143745,188.813968 200.825298,188.493545 200.825298,188.10212 C200.825298,187.708875 201.143745,187.388452 201.5368,187.388452 L207.22882,187.388452 C207.620055,187.388452 207.940322,187.708875 207.940322,188.10212 C207.940322,188.493545 207.620055,188.813968 207.22882,188.813968 M224.299419,188.813968 L218.6074,188.813968 C218.216164,188.813968 217.895897,188.493545 217.895897,188.10212 C217.895897,187.708875 218.216164,187.388452 218.6074,187.388452 L224.299419,187.388452 C224.692475,187.388452 225.010922,187.708875 225.010922,188.10212 C225.010922,188.493545 224.692475,188.813968 224.299419,188.813968 M241.370019,188.813968 L235.679819,188.813968 C235.286764,188.813968 234.968317,188.493545 234.968317,188.10212 C234.968317,187.708875 235.286764,187.388452 235.679819,187.388452 L241.370019,187.388452 C241.763074,187.388452 242.081522,187.708875 242.081522,188.10212 C242.081522,188.493545 241.763074,188.813968 241.370019,188.813968 M258.442439,188.813968 L252.754058,188.813968 C252.361003,188.813968 252.042556,188.493545 252.042556,188.10212 C252.042556,187.708875 252.361003,187.388452 252.754058,187.388452 L258.442439,187.388452 C258.835494,187.388452 259.153941,187.708875 259.153941,188.10212 C259.153941,188.493545 258.835494,188.813968 258.442439,188.813968 M275.516678,188.813968 L269.824658,188.813968 C269.431603,188.813968 269.113156,188.493545 269.113156,188.10212 C269.113156,187.708875 269.431603,187.388452 269.824658,187.388452 L275.516678,187.388452 C275.907913,187.388452 276.22818,187.708875 276.22818,188.10212 C276.22818,188.493545 275.907913,188.813968 275.516678,188.813968 M292.587278,188.813968 L286.897078,188.813968 C286.504023,188.813968 286.185575,188.493545 286.185575,188.10212 C286.185575,187.708875 286.504023,187.388452 286.897078,187.388452 L292.587278,187.388452 C292.980333,187.388452 293.29878,187.708875 293.29878,188.10212 C293.29878,188.493545 292.980333,188.813968 292.587278,188.813968 M309.657877,188.813968 L303.967677,188.813968 C303.574622,188.813968 303.256175,188.493545 303.256175,188.10212 C303.256175,187.708875 303.574622,187.388452 303.967677,187.388452 L309.657877,187.388452 C310.050932,187.388452 310.36938,187.708875 310.36938,188.10212 C310.36938,188.493545 310.050932,188.813968 309.657877,188.813968 M326.730297,188.813968 L321.041917,188.813968 C320.648862,188.813968 320.330414,188.493545 320.330414,188.10212 C320.330414,187.708875 320.648862,187.388452 321.041917,187.388452 L326.730297,187.388452 C327.123352,187.388452 327.441799,187.708875 327.441799,188.10212 C327.441799,188.493545 327.123352,188.813968 326.730297,188.813968 M343.804536,188.813968 L338.112516,188.813968 C337.719461,188.813968 337.401014,188.493545 337.401014,188.10212 C337.401014,187.708875 337.719461,187.388452 338.112516,187.388452 L343.804536,187.388452 C344.195771,187.388452 344.514219,187.708875 344.514219,188.10212 C344.514219,188.493545 344.195771,188.813968 343.804536,188.813968 M360.875136,188.813968 L355.183116,188.813968 C354.791881,188.813968 354.473433,188.493545 354.473433,188.10212 C354.473433,187.708875 354.791881,187.388452 355.183116,187.388452 L360.875136,187.388452 C361.268191,187.388452 361.586638,187.708875 361.586638,188.10212 C361.586638,188.493545 361.268191,188.813968 360.875136,188.813968 M377.947555,188.813968 L372.255536,188.813968 C371.862481,188.813968 371.544033,188.493545 371.544033,188.10212 C371.544033,187.708875 371.862481,187.388452 372.255536,187.388452 L377.947555,187.388452 C378.338791,187.388452 378.657238,187.708875 378.657238,188.10212 C378.657238,188.493545 378.338791,188.813968 377.947555,188.813968" id="Fill-27" fill="#FFFFFF" mask="url(#mask-4)"></path>
                    <path d="M70.6501919,188.813968 L67.0908599,188.813968 L67.0908599,185.25291 C67.0908599,184.859665 67.4093073,184.539242 67.8023624,184.539242 C68.1954174,184.539242 68.5156845,184.859665 68.5156845,185.25291 L68.5156845,187.388452 L70.6501919,187.388452 C71.0432469,187.388452 71.363514,187.708875 71.363514,188.10212 C71.363514,188.493545 71.0432469,188.813968 70.6501919,188.813968" id="Fill-28" fill="#FFFFFF" mask="url(#mask-4)"></path>
                    <path d="M67.8025443,134.918018 C67.4094893,134.918018 67.0910419,134.597596 67.0910419,134.206171 L67.0910419,127.823212 C67.0910419,127.429966 67.4094893,127.111364 67.8025443,127.111364 C68.1955994,127.111364 68.5140468,127.429966 68.5140468,127.823212 L68.5140468,134.206171 C68.5140468,134.597596 68.1955994,134.918018 67.8025443,134.918018 M67.8025443,154.059612 C67.4094893,154.059612 67.0910419,153.741011 67.0910419,153.347765 L67.0910419,146.966627 C67.0910419,146.573381 67.4094893,146.252959 67.8025443,146.252959 C68.1955994,146.252959 68.5140468,146.573381 68.5140468,146.966627 L68.5140468,153.347765 C68.5140468,153.741011 68.1955994,154.059612 67.8025443,154.059612 M67.8025443,173.203027 C67.4094893,173.203027 67.0910419,172.882605 67.0910419,172.489359 L67.0910419,166.110042 C67.0910419,165.716796 67.4094893,165.396374 67.8025443,165.396374 C68.1955994,165.396374 68.5140468,165.716796 68.5140468,166.110042 L68.5140468,172.489359 C68.5140468,172.882605 68.1955994,173.203027 67.8025443,173.203027" id="Fill-29" fill="#FFFFFF" mask="url(#mask-4)"></path>
                    <path d="M67.8025443,115.774967 C67.4094893,115.774967 67.0910419,115.454545 67.0910419,115.06312 L67.0910419,111.500242 L70.6503738,111.500242 C71.0434289,111.500242 71.363696,111.820664 71.363696,112.21391 C71.363696,112.605335 71.0434289,112.925757 70.6503738,112.925757 L68.5140468,112.925757 L68.5140468,115.06312 C68.5140468,115.454545 68.1955994,115.774967 67.8025443,115.774967" id="Fill-30" fill="#FFFFFF" mask="url(#mask-4)"></path>
                    <path d="M87.7217015,112.925939 L82.0315016,112.925939 C81.6384465,112.925939 81.3181794,112.605517 81.3181794,112.212271 C81.3181794,111.820846 81.6384465,111.500424 82.0315016,111.500424 L87.7217015,111.500424 C88.1147565,111.500424 88.4332039,111.820846 88.4332039,112.212271 C88.4332039,112.605517 88.1147565,112.925939 87.7217015,112.925939 M104.794121,112.925939 L99.1021013,112.925939 C98.710866,112.925939 98.3905989,112.605517 98.3905989,112.212271 C98.3905989,111.820846 98.710866,111.500424 99.1021013,111.500424 L104.794121,111.500424 C105.187176,111.500424 105.505623,111.820846 105.505623,112.212271 C105.505623,112.605517 105.187176,112.925939 104.794121,112.925939 M121.864721,112.925939 L116.17634,112.925939 C115.783285,112.925939 115.463018,112.605517 115.463018,112.212271 C115.463018,111.820846 115.783285,111.500424 116.17634,111.500424 L121.864721,111.500424 C122.257776,111.500424 122.578043,111.820846 122.578043,112.212271 C122.578043,112.605517 122.257776,112.925939 121.864721,112.925939 M138.93896,112.925939 L133.24694,112.925939 C132.853885,112.925939 132.535438,112.605517 132.535438,112.212271 C132.535438,111.820846 132.853885,111.500424 133.24694,111.500424 L138.93896,111.500424 C139.330195,111.500424 139.648643,111.820846 139.648643,112.212271 C139.648643,112.605517 139.330195,112.925939 138.93896,112.925939 M156.00956,112.925939 L150.31754,112.925939 C149.926305,112.925939 149.606038,112.605517 149.606038,112.212271 C149.606038,111.820846 149.926305,111.500424 150.31754,111.500424 L156.00956,111.500424 C156.402615,111.500424 156.721062,111.820846 156.721062,112.212271 C156.721062,112.605517 156.402615,112.925939 156.00956,112.925939 M173.080159,112.925939 L167.391779,112.925939 C166.998724,112.925939 166.680277,112.605517 166.680277,112.212271 C166.680277,111.820846 166.998724,111.500424 167.391779,111.500424 L173.080159,111.500424 C173.473214,111.500424 173.791662,111.820846 173.791662,112.212271 C173.791662,112.605517 173.473214,112.925939 173.080159,112.925939 M190.154399,112.925939 L184.462379,112.925939 C184.071144,112.925939 183.752696,112.605517 183.752696,112.212271 C183.752696,111.820846 184.071144,111.500424 184.462379,111.500424 L190.154399,111.500424 C190.547454,111.500424 190.865901,111.820846 190.865901,112.212271 C190.865901,112.605517 190.547454,112.925939 190.154399,112.925939 M207.226818,112.925939 L201.534798,112.925939 C201.141743,112.925939 200.823296,112.605517 200.823296,112.212271 C200.823296,111.820846 201.141743,111.500424 201.534798,111.500424 L207.226818,111.500424 C207.618053,111.500424 207.936501,111.820846 207.936501,112.212271 C207.936501,112.605517 207.618053,112.925939 207.226818,112.925939 M224.297418,112.925939 L218.605398,112.925939 C218.212343,112.925939 217.893896,112.605517 217.893896,112.212271 C217.893896,111.820846 218.212343,111.500424 218.605398,111.500424 L224.297418,111.500424 C224.690473,111.500424 225.00892,111.820846 225.00892,112.212271 C225.00892,112.605517 224.690473,112.925939 224.297418,112.925939 M241.368018,112.925939 L235.679637,112.925939 C235.286582,112.925939 234.968135,112.605517 234.968135,112.212271 C234.968135,111.820846 235.286582,111.500424 235.679637,111.500424 L241.368018,111.500424 C241.761073,111.500424 242.07952,111.820846 242.07952,112.212271 C242.07952,112.605517 241.761073,112.925939 241.368018,112.925939 M258.442257,112.925939 L252.750237,112.925939 C252.359002,112.925939 252.038735,112.605517 252.038735,112.212271 C252.038735,111.820846 252.359002,111.500424 252.750237,111.500424 L258.442257,111.500424 C258.835312,111.500424 259.153759,111.820846 259.153759,112.212271 C259.153759,112.605517 258.835312,112.925939 258.442257,112.925939 M275.512856,112.925939 L269.822657,112.925939 C269.429601,112.925939 269.111154,112.605517 269.111154,112.212271 C269.111154,111.820846 269.429601,111.500424 269.822657,111.500424 L275.512856,111.500424 C275.905912,111.500424 276.224359,111.820846 276.224359,112.212271 C276.224359,112.605517 275.905912,112.925939 275.512856,112.925939 M292.585276,112.925939 L286.893256,112.925939 C286.502021,112.925939 286.181754,112.605517 286.181754,112.212271 C286.181754,111.820846 286.502021,111.500424 286.893256,111.500424 L292.585276,111.500424 C292.978331,111.500424 293.296778,111.820846 293.296778,112.212271 C293.296778,112.605517 292.978331,112.925939 292.585276,112.925939 M309.655876,112.925939 L303.967495,112.925939 C303.57444,112.925939 303.255993,112.605517 303.255993,112.212271 C303.255993,111.820846 303.57444,111.500424 303.967495,111.500424 L309.655876,111.500424 C310.048931,111.500424 310.367378,111.820846 310.367378,112.212271 C310.367378,112.605517 310.048931,112.925939 309.655876,112.925939 M326.730115,112.925939 L321.039915,112.925939 C320.64686,112.925939 320.328412,112.605517 320.328412,112.212271 C320.328412,111.820846 320.64686,111.500424 321.039915,111.500424 L326.730115,111.500424 C327.12317,111.500424 327.441617,111.820846 327.441617,112.212271 C327.441617,112.605517 327.12317,112.925939 326.730115,112.925939 M343.800715,112.925939 L338.110515,112.925939 C337.71746,112.925939 337.399012,112.605517 337.399012,112.212271 C337.399012,111.820846 337.71746,111.500424 338.110515,111.500424 L343.800715,111.500424 C344.19377,111.500424 344.512217,111.820846 344.512217,112.212271 C344.512217,112.605517 344.19377,112.925939 343.800715,112.925939 M360.873134,112.925939 L355.181114,112.925939 C354.789879,112.925939 354.469612,112.605517 354.469612,112.212271 C354.469612,111.820846 354.789879,111.500424 355.181114,111.500424 L360.873134,111.500424 C361.266189,111.500424 361.584637,111.820846 361.584637,112.212271 C361.584637,112.605517 361.266189,112.925939 360.873134,112.925939 M377.943734,112.925939 L372.255354,112.925939 C371.862299,112.925939 371.543851,112.605517 371.543851,112.212271 C371.543851,111.820846 371.862299,111.500424 372.255354,111.500424 L377.943734,111.500424 C378.336789,111.500424 378.655236,111.820846 378.655236,112.212271 C378.655236,112.605517 378.336789,112.925939 377.943734,112.925939" id="Fill-31" fill="#FFFFFF" mask="url(#mask-4)"></path>
                    <path d="M392.174693,115.774967 C391.781638,115.774967 391.46319,115.454545 391.46319,115.06312 L391.46319,112.925757 L389.326863,112.925757 C388.933808,112.925757 388.615361,112.605335 388.615361,112.21391 C388.615361,111.820664 388.933808,111.500242 389.326863,111.500242 L392.886195,111.500242 L392.886195,115.06312 C392.886195,115.454545 392.567748,115.774967 392.174693,115.774967" id="Fill-32" fill="#FFFFFF" mask="url(#mask-4)"></path>
                    <path d="M392.174693,134.918018 C391.781638,134.918018 391.46319,134.597596 391.46319,134.206171 L391.46319,127.825032 C391.46319,127.431787 391.781638,127.111364 392.174693,127.111364 C392.567748,127.111364 392.886195,127.431787 392.886195,127.825032 L392.886195,134.206171 C392.886195,134.597596 392.567748,134.918018 392.174693,134.918018 M392.174693,154.061433 C391.781638,154.061433 391.46319,153.741011 391.46319,153.347765 L391.46319,146.968447 C391.46319,146.575202 391.781638,146.254779 392.174693,146.254779 C392.567748,146.254779 392.886195,146.575202 392.886195,146.968447 L392.886195,153.347765 C392.886195,153.741011 392.567748,154.061433 392.174693,154.061433 M392.174693,173.203027 C391.781638,173.203027 391.46319,172.884426 391.46319,172.49118 L391.46319,166.110042 C391.46319,165.716796 391.781638,165.396374 392.174693,165.396374 C392.567748,165.396374 392.886195,165.716796 392.886195,166.110042 L392.886195,172.49118 C392.886195,172.884426 392.567748,173.203027 392.174693,173.203027" id="Fill-33" fill="#FFFFFF" mask="url(#mask-4)"></path>
                    <path d="M130.087578,36.1460079 C126.855792,36.1460079 124.237245,33.5261911 124.237245,30.2928383 C124.237245,27.061306 126.855792,24.4396686 130.087578,24.4396686 L331.915894,24.4396686 C335.14768,24.4396686 337.766228,27.061306 337.766228,30.2928383 C337.766228,33.5261911 335.14768,36.1460079 331.915894,36.1460079 L130.087578,36.1460079 Z" id="Fill-34" fill="#F4F5F7" mask="url(#mask-4)"></path>
                    <path d="M333.590199,305.107983 C333.590199,307.110623 331.95247,308.749146 329.950801,308.749146 L33.7201211,308.749146 C31.7184518,308.749146 30.0807224,307.110623 30.0807224,305.107983 L30.0807224,221.361232 C30.0807224,219.358593 31.7184518,217.720069 33.7201211,217.720069 L329.950801,217.720069 C331.95247,217.720069 333.590199,219.358593 333.590199,221.361232 L333.590199,305.107983 Z" id="Fill-35" fill="#FAFBFC" mask="url(#mask-4)"></path>
                </g>
                <g id="Group-96" transform="translate(275.000000, 217.000000)">
                    <path d="M122.035184,68.5057054 C116.67503,66.2970607 109.278017,64.8464988 100.038565,62.6506103 C96.4009279,58.4210194 82.2337676,45.0835029 71.5643351,33.9965442 C70.0925639,32.4676227 68.9896441,29.1090979 68.7516169,26.997036 C68.1701764,21.827131 67.699573,13.3005236 66.2568739,13.9766021 C64.7324097,14.6909492 64.3181334,18.9733872 64.2345513,20.3838583 C64.1909432,21.1328293 63.3987306,21.5956971 62.7446101,21.2312343 C62.1540846,20.9032178 61.4436371,20.538755 60.7277385,20.2216723 L60.7295555,20.2216723 C60.7295555,20.2216723 51.0267678,14.4012012 50.1727771,15.839007 C49.7276117,16.5916227 54.1374742,20.2289616 56.0035347,21.7177921 C55.8854296,21.9510483 55.7582395,22.1788376 55.6546705,22.4139161 C52.538513,21.2421682 47.3128168,19.4617674 46.8712855,20.5423996 C46.4969832,21.4572012 53.1235874,24.9797343 54.5608356,25.7305277 C54.4972405,26.0056971 54.4318285,26.2826888 54.3809524,26.5523913 C51.1430559,25.6940814 46.4188521,24.6334946 46.1008769,25.6795029 C45.8283266,26.5742591 52.0406546,29.2475938 53.9830291,30.0585236 C53.9793951,30.1277715 53.9739441,30.2043087 53.9721271,30.269912 C53.9648591,30.4412095 54.0157352,30.5997508 54.0320882,30.7655814 C50.9867937,30.6052178 47.6435111,30.5869946 47.576282,31.274007 C47.507236,31.9974657 54.1265722,33.3678459 55.9435737,33.728664 C56.0962018,33.8197798 56.2288429,33.9345855 56.39419,34.0056558 L64.2127473,37.3095112 C64.2127473,37.3095112 79.7372076,69.014131 92.737853,74.8910938 C92.832337,74.8437136 124.253743,85.0413831 124.253743,85.0413831 L122.035184,68.5057054 Z" id="Fill-54" fill="#73C8F0"></path>
                    <path d="M155.59611,1.69274752 C161.763012,0.442640083 173.633483,3.78658636 173.824268,15.0229748 C174.013236,26.2575409 172.494223,44.3476525 162.240884,47.2032186 C156.495525,48.8050326 149.381965,47.2797558 146.151336,42.6055202 C143.616619,38.9408467 142.838942,32.6010161 142.279306,30.000574 C140.2588,20.6156566 136.79923,5.50138388 155.59611,1.69274752" id="Fill-56" fill="#73C8F0"></path>
                    <path d="M153.507648,40.3489488 L149.330362,56.3452215 C149.330362,56.3452215 154.078186,61.4859694 159.963454,61.1051058 C165.848722,60.7242421 174.690251,54.433614 174.690251,54.433614 C174.690251,54.433614 168.42523,46.6249983 168.42523,40.7225231 L153.507648,40.3489488 Z" id="Fill-58" fill="#73C8F0"></path>
                    <path d="M137.749703,17.6939405 C137.749703,17.6939405 136.810313,-1.82304298 156.884545,0.179680165 C160.523999,0.544142975 166.311149,1.08172562 169.34009,2.49766364 C177.607447,6.36643636 178.201606,12.0192545 177.32036,21.3695479 C176.199271,33.2328124 168.511537,41.6919942 171.038986,44.8063289 L162.048463,44.8063289 C158.51803,44.8063289 155.261963,42.5630603 154.302586,39.1553331 C153.414072,36.0009074 153.165143,32.8209694 153.626662,29.6100521 C153.626662,28.5968455 154.638731,19.2593083 148.306481,21.4132835 C141.976048,23.5672587 137.749703,17.6939405 137.749703,17.6939405" id="Fill-60" fill="#32285F"></path>
                    <path d="M147.698513,25.5796401 C147.698513,28.7249541 149.422847,31.2761938 151.550556,31.2761938 C153.678264,31.2761938 155.402599,28.7249541 155.402599,25.5796401 C155.402599,22.4325037 153.678264,19.8830864 151.550556,19.8830864 C149.422847,19.8830864 147.698513,22.4325037 147.698513,25.5796401" id="Fill-62" fill="#73C8F0"></path>
                    <path d="M141.937346,26.8045996 L140.307496,32.3116326 C140.07492,33.09705 140.640007,33.8915789 141.455841,33.9280252 L146.150973,34.1430583 L141.937346,26.8045996 Z" id="Fill-64" fill="#73C8F0"></path>
                    <path d="M197.659511,172.959653 L196.004223,163.685897 C196.004223,163.685897 215.994873,130.102471 213.594614,114.448794 C213.494679,114.388657 203.982676,78.9738062 203.982676,78.9738062 L190.009935,91.0138351 C191.198254,97.3372649 194.316229,105.102145 197.857564,115.031934 C196.135047,120.970856 192.332063,142.213571 188.501824,158.836719 C187.973077,161.131013 185.52921,164.183389 183.717659,165.677686 C179.280542,169.338715 171.669123,174.920463 173.166332,175.857133 C174.745306,176.844827 178.962566,174.647116 180.318049,173.874455 C181.039399,173.464434 181.944266,173.921835 182.00241,174.750988 C182.053286,175.499959 182.144136,176.380137 182.282228,177.238447 L182.282228,177.238447 C182.282228,177.238447 182.745563,189.785079 184.591637,189.712186 C185.556465,189.67574 186.265095,183.372356 186.519475,180.735467 C186.804745,180.70631 187.093648,180.686265 187.373466,180.642529 C188.167496,184.250711 189.671973,190.193277 190.94024,189.95091 C192.010454,189.74681 191.274568,181.451637 191.10377,179.65848 C191.398124,179.552786 191.694296,179.447091 191.974114,179.332286 C193.131544,182.865752 194.999421,187.906273 196.160485,187.570967 C197.152568,187.283042 195.880667,179.884447 195.46094,177.586509 C195.524535,177.54824 195.600849,177.508149 195.664444,177.469881 C195.82434,177.373298 195.940628,177.231157 196.084171,177.114529 C197.773982,180.046633 199.772684,183.173724 200.450426,182.820195 C201.160873,182.450265 198.437188,175.458046 197.675864,173.546438 C197.666779,173.349629 197.694034,173.156463 197.659511,172.959653" id="Fill-66" fill="#73C8F0"></path>
                    <path d="M92.3059517,241.845493 C96.0162687,244.360287 100.342549,246.26825 107.65598,245.240464 C108.599004,242.24458 108.499069,238.490613 107.65598,234.197241 L93.3125705,234.197241 C95.7927775,236.985382 94.8479368,240.183543 92.3059517,241.845493" id="Fill-68" fill="#C8E6EB"></path>
                    <path d="M111.670826,244.524842 C111.194772,243.506168 110.090035,242.930317 108.970762,243.012321 C105.812814,243.2474 99.0353983,244.357189 94.8054189,241.180895 C93.0429275,239.856073 90.7462377,239.482499 88.574921,239.857895 C82.0991278,240.976796 70.3740175,243.323937 68.7841412,253.175367 C68.7841412,253.175367 82.4443581,252.932999 92.3052249,252.302478 C102.747532,251.633689 112.292241,249.322995 112.292241,249.322995 C112.299509,247.786784 112.503013,246.305243 111.670826,244.524842" id="Fill-70" fill="#73C8F0"></path>
                    <path d="M133.259711,147.449443 C104.803651,140.74515 90.5510917,136.608497 90.5510917,163.044807 C90.5510917,186.576348 91.5213705,233.823485 91.5213705,233.823485 C93.3129339,236.837592 105.432334,238.393848 108.722923,236.943286 C108.722923,236.943286 112.685803,190.791361 113.79054,171.37096 C134.891378,172.728584 163.705387,181.798241 163.705387,181.798241 L133.259711,147.449443 Z" id="Fill-72" fill="#41378C"></path>
                    <path d="M177.686486,310.681949 L194.818993,314.299242 C196.443392,311.06099 196.121783,307.292445 194.818993,303.256019 L180.475584,303.256019 C181.427692,306.432312 181.77474,308.777631 177.686486,310.681949" id="Fill-74" fill="#C8E6EB"></path>
                    <path d="M183.143123,147.449443 C195.035398,197.473786 190.981668,199.376282 192.466158,225.767034 C193.788935,249.260307 197.277578,304.873687 197.277578,304.873687 C193.850713,309.013985 183.760904,308.188476 178.566097,305.580745 C178.566097,305.580745 170.507695,249.409737 169.60828,238.601592 C168.865126,229.68501 157.683299,171.522212 157.683299,171.522212 L183.143123,147.449443 Z" id="Fill-76" fill="#41378C"></path>
                    <polygon id="Fill-78" fill="#41378C" points="135.058542 148.672581 135.314739 143.646638 181.800904 140.745514 181.800904 150.935895 159.942377 178.892014 152.568985 176.191345"></polygon>
                    <path d="M197.776708,313.58289 C197.300653,312.564217 196.195917,311.988366 195.076644,312.07037 C191.918695,312.305448 185.14128,313.41706 180.9113,310.238944 C179.148809,308.914122 176.852119,308.540548 174.680802,308.915944 C168.205009,310.034845 156.479899,312.381986 154.890023,322.233415 C154.890023,322.233415 167.449137,322.233415 178.876259,321.360527 C186.960098,320.742762 198.398122,318.381043 198.398122,318.381043 C198.40539,316.844833 198.608895,315.363291 197.776708,313.58289" id="Fill-80" fill="#73C8F0"></path>
                    <path d="M193.296709,56.2522835 C192.25375,55.6272298 190.851025,55.0167545 189.262966,54.4245025 C189.252064,54.4573041 189.242979,54.4864612 189.23026,54.5174405 C187.829352,54.0655066 186.330326,53.6317959 184.724096,53.2399983 C173.774846,50.5703083 162.389515,50.2222463 151.238577,51.8550397 L147.688156,52.3762215 C147.688156,52.3762215 139.206393,56.4308702 132.310873,60.0809653 C132.310873,60.1556802 132.31269,60.2522628 132.31269,60.3324446 C124.426903,65.6608909 113.844687,66.2494983 102.212244,60.8208248 C99.7084156,66.5702256 97.65157,76.582019 100.893101,82.7450851 C113.732033,88.3086099 126.401984,89.4840025 134.011586,85.558738 C134.05156,85.5332256 134.098802,85.5022463 134.138776,85.4749116 C135.041826,95.289895 135.930339,103.96411 135.88128,103.663428 C135.999386,107.2953 138.41418,118.721209 137.743707,129.908395 C137.260385,137.953912 133.259347,147.44999 133.259347,147.44999 C133.259347,147.44999 156.329815,180.831139 188.312674,171.099982 C188.312674,171.099982 191.972115,120.100701 189.219358,92.5710025 C190.990934,99.3317876 191.59963,102.690312 193.289441,108.867957 C198.902159,109.516701 206.1847,104.986428 209.916821,98.0507008 C209.916821,98.0507008 202.194565,61.5843744 193.296709,56.2522835" id="Fill-82" fill="#B9F4BC"></path>
                    <path d="M156.711022,194.413574 C152.117642,195.025872 148.309207,198.116517 146.811998,202.623099 L131.587343,248.477988 L71.3719147,248.477988 L71.3719147,260.133508 L127.71713,260.133508 L120.103893,283.061864 L57.4664026,283.061864 L57.4664026,294.715562 L116.23368,294.715562 L108.620444,317.643917 L43.5608905,317.643917 L43.5608905,329.299438 L104.750231,329.299438 L97.1388122,352.227793 L32.0156633,352.227793 L32.0156633,363.881492 L93.2685991,363.881492 L85.655363,386.809847 L20.4722532,386.809847 L20.4722532,398.465368 L81.78515,398.465368 L74.1719139,421.393723 L8.92884296,421.393723 L8.92884296,433.047421 L70.3017008,433.047421 L67.9395989,440.159913 L79.9299915,440.159913 L128.224073,294.715562 L129.485072,294.715562 L129.485072,290.91786 L139.707522,260.133508 L143.392401,260.133508 L143.392401,249.035616 L156.711022,208.922839 L156.711022,194.413574 Z" id="Fill-84" fill="#A1B8E2"></path>
                    <path d="M260.707099,440.16046 L169.726203,202.111576 C168.003686,197.608638 163.966308,194.67289 159.256641,194.339406 L159.256641,206.60358 L175.262606,248.478534 L113.789813,248.478534 L113.789813,260.134055 L179.716077,260.134055 L188.479475,283.06241 L127.695325,283.06241 L127.695325,294.716109 L192.934762,294.716109 L201.696343,317.644464 L141.602655,317.644464 L141.602655,329.299985 L206.151631,329.299985 L214.915029,352.22834 L152.459238,352.22834 L152.459238,363.882038 L219.368499,363.882038 L228.131897,386.810394 L166.540999,386.810394 L166.540999,398.465914 L232.587185,398.465914 L241.348766,421.39427 L180.086745,421.39427 L180.086745,433.047968 L245.804054,433.047968 L248.522288,440.16046 L260.707099,440.16046 Z" id="Fill-86" fill="#A1B8E2"></path>
                    <path d="M163.518781,202.389296 C163.518781,208.878557 160.74422,214.139577 157.320989,214.139577 C153.897758,214.139577 151.123197,208.878557 151.123197,202.389296 C151.123197,195.900036 153.897758,190.639015 157.320989,190.639015 C160.74422,190.639015 163.518781,195.900036 163.518781,202.389296" id="Fill-88" fill="#A1B8E2"></path>
                    <path d="M12.3655195,440.16046 L90.0405143,206.230005 C90.0695863,206.140712 90.1150114,206.005861 90.2240315,205.892877 L90.2240315,194.306605 C85.1509634,194.539861 80.859206,197.767179 79.2475257,202.623646 L0.375126955,440.16046 L12.3655195,440.16046 Z" id="Fill-90" fill="#A1B8E2"></path>
                    <path d="M193.142264,440.16046 L102.161368,202.111576 C100.569674,197.953055 97.0119855,195.110245 92.7711041,194.434167 L92.7711041,209.4227 L180.957452,440.16046 L193.142264,440.16046 Z" id="Fill-92" fill="#A1B8E2"></path>
                    <path d="M97.5679879,203.262367 C97.5679879,209.751627 94.7934267,215.012648 91.370196,215.012648 C87.9469653,215.012648 85.172404,209.751627 85.172404,203.262367 C85.172404,196.773107 87.9469653,191.512086 91.370196,191.512086 C94.7934267,191.512086 97.5679879,196.773107 97.5679879,203.262367" id="Fill-94" fill="#A1B8E2"></path>
                </g>
            </g>
        </g>
    </g>
</svg>