<?xml version="1.0" encoding="UTF-8"?>
<svg width="33px" height="29px" viewBox="0 0 33 29" version="1.1" xmlns="http://www.w3.org/2000/svg" xmlns:xlink="http://www.w3.org/1999/xlink">
    <title>piggy-bank@2x</title>
    <g id="screens" stroke="none" stroke-width="1" fill="none" fill-rule="evenodd" fill-opacity="0.999998374">
        <g id="landing-page" transform="translate(-268.000000, -1224.000000)" fill="#14B675" fill-rule="nonzero">
            <g id="piggy-bank" transform="translate(268.000000, 1224.000000)">
                <path d="M32.0832975,12.6875 L30.3931271,12.6875 C29.8889407,11.5546875 29.1555787,10.5521484 28.2503349,9.71386719 L29.3331898,5.4375 L27.4997847,5.4375 C25.8153438,5.4375 24.3257022,6.20214844 23.3173294,7.38027344 C22.8818957,7.31796875 22.4521913,7.25 21.9995695,7.25 L14.6659491,7.25 C10.2314005,7.25 6.53594341,10.3652344 5.68226417,14.5 L3.2071673,14.5 C2.35921744,14.5 1.68887871,13.7353516 1.86076043,12.86875 C1.98680703,12.2230469 2.59985186,11.78125 3.26446121,11.78125 L3.32175512,11.78125 C3.51082501,11.78125 3.66551857,11.6283203 3.66551857,11.4414062 L3.66551857,10.3085937 C3.66551857,10.1216797 3.51082501,9.96875 3.32175512,9.96875 C1.68887871,9.96875 0.233613418,11.1242187 0.0273553451,12.7214844 C-0.224737855,14.6585937 1.29928013,16.3125 3.2071673,16.3125 L5.49892366,16.3125 C5.49892366,19.2691406 6.95418895,21.8689453 9.16573384,23.5228516 L9.16573384,28.09375 C9.16573384,28.5921875 9.57824998,29 10.0824364,29 L13.7492466,29 C14.253433,29 14.6659491,28.5921875 14.6659491,28.09375 L14.6659491,25.375 L21.9995695,25.375 L21.9995695,28.09375 C21.9995695,28.5921875 22.4120856,29 22.916272,29 L26.5830822,29 C27.0872686,29 27.4997847,28.5921875 27.4997847,28.09375 L27.4997847,23.5228516 C28.1758529,23.01875 28.7774389,22.4240234 29.2930841,21.75 L32.0832975,21.75 C32.5874839,21.75 33,21.3421875 33,20.84375 L33,13.59375 C33,13.0953125 32.5874839,12.6875 32.0832975,12.6875 Z M24.7496771,16.3125 C24.2454907,16.3125 23.8329746,15.9046875 23.8329746,15.40625 C23.8329746,14.9078125 24.2454907,14.5 24.7496771,14.5 C25.2538635,14.5 25.6663796,14.9078125 25.6663796,15.40625 C25.6663796,15.9046875 25.2538635,16.3125 24.7496771,16.3125 Z M14.6659491,5.4375 L21.9995695,5.4375 C22.3089566,5.4375 22.6126143,5.46015625 22.9105426,5.4828125 C22.9105426,5.46582031 22.916272,5.45449219 22.916272,5.4375 C22.916272,2.43554687 20.4526339,0 17.4160567,0 C14.3794796,0 11.9158415,2.43554687 11.9158415,5.4375 C11.9158415,5.55644531 11.9444884,5.66972656 11.9502178,5.78867187 C12.8210852,5.56777344 13.726329,5.4375 14.6659491,5.4375 Z" id="Shape"></path>
            </g>
        </g>
    </g>
</svg>