<?xml version="1.0" encoding="UTF-8"?>
<svg width="36px" height="18px" viewBox="0 0 36 18" version="1.1" xmlns="http://www.w3.org/2000/svg" xmlns:xlink="http://www.w3.org/1999/xlink">
    <title>graph@2x</title>
    <g id="screens" stroke="none" stroke-width="1" fill="none" fill-rule="evenodd" fill-opacity="0.999998374">
        <g id="landing-page" transform="translate(-670.000000, -1228.000000)" fill="#14B675" fill-rule="nonzero">
            <g id="graph" transform="translate(670.000000, 1228.000000)">
                <path d="M34.3125,0 L27.5625,0 C26.6304375,0 25.875,0.7554375 25.875,1.6875 C25.875,2.6195625 26.6304375,3.375 27.5625,3.375 L30.2383125,3.375 L22.9944375,10.6194375 L22.0168125,11.5970625 L21.8491875,11.7646875 L19.6875,13.926375 L11.8805625,6.1194375 C11.575125,5.814 11.1538125,5.625 10.6875,5.625 C10.22175,5.625 9.799875,5.814 9.4944375,6.1194375 L0.4944375,15.1194375 C0.189,15.424875 0,15.84675 0,16.3125 C0,17.2445625 0.7554375,18 1.6875,18 C2.15325,18 2.575125,17.811 2.8805625,17.5055625 L10.6875,9.6991875 L18.4944375,17.506125 C18.799875,17.811 19.22175,18 19.6875,18 C20.15325,18 20.575125,17.811 20.8805625,17.5055625 L24.2353125,14.15025 L24.2353125,14.15025 L32.625,5.7616875 L32.625,8.4375 C32.625,9.3695625 33.3804375,10.125 34.3125,10.125 C35.2445625,10.125 36,9.3695625 36,8.4375 L36,1.6875 C36,0.7554375 35.2445625,0 34.3125,0 Z" id="Shape"></path>
            </g>
        </g>
    </g>
</svg>