<?xml version="1.0" encoding="UTF-8"?>
<svg width="151px" height="47px" viewBox="0 0 151 47" version="1.1" xmlns="http://www.w3.org/2000/svg" xmlns:xlink="http://www.w3.org/1999/xlink">
    <title>Group 29@2x</title>
    <g id="screens" stroke="none" stroke-width="1" fill="none" fill-rule="evenodd">
        <g id="landing-page" transform="translate(-265.000000, -41.000000)" fill="#FFFFFF">
            <g id="Group-29" transform="translate(265.000000, 41.000000)">
                <path d="M40.3322492,37 L35.5519103,37 L35.5519103,19.3163401 L40.1165948,19.3163401 L40.1165948,21.472884 C41.0870396,19.7476489 43.3514107,18.8131465 45.2923002,18.8131465 C47.7004409,18.8131465 49.6413304,19.8554761 50.5398903,21.7604232 C51.9416438,19.6038793 53.8106485,18.8131465 56.1469044,18.8131465 C59.4176627,18.8131465 62.5446513,20.7899784 62.5446513,25.534375 L62.5446513,37 L57.9080819,37 L57.9080819,26.5048197 C57.9080819,24.5998726 56.9735796,23.1621767 54.7810933,23.1621767 C52.7323766,23.1621767 51.5103351,24.7436422 51.5103351,26.6485893 L51.5103351,37 L46.7659385,37 L46.7659385,26.5048197 C46.7659385,24.5998726 45.7954937,23.1621767 43.6389499,23.1621767 C41.5542908,23.1621767 40.3322492,24.7076998 40.3322492,26.6485893 L40.3322492,37 Z M70.3800942,37 L65.5997553,37 L65.5997553,19.3163401 L70.3800942,19.3163401 L70.3800942,37 Z M65.0246769,13.529614 C65.0246769,11.8762637 66.3545456,10.5463949 67.9719535,10.5463949 C69.6253038,10.5463949 70.9192302,11.8762637 70.9192302,13.529614 C70.9192302,15.1110795 69.6253038,16.4409482 67.9719535,16.4409482 C66.3545456,16.4409482 65.0246769,15.1110795 65.0246769,13.529614 Z M83.1755881,28.4457092 L72.7522926,28.4457092 L72.7522926,24.2045063 L83.1755881,24.2045063 L83.1755881,28.4457092 Z M90.3281254,37 L85.5477865,37 L85.5477865,19.3163401 L90.112471,19.3163401 L90.112471,21.472884 C91.0829158,19.7476489 93.3472869,18.8131465 95.2881764,18.8131465 C97.696317,18.8131465 99.6372065,19.8554761 100.535766,21.7604232 C101.93752,19.6038793 103.806525,18.8131465 106.142781,18.8131465 C109.413539,18.8131465 112.540527,20.7899784 112.540527,25.534375 L112.540527,37 L107.903958,37 L107.903958,26.5048197 C107.903958,24.5998726 106.969456,23.1621767 104.776969,23.1621767 C102.728253,23.1621767 101.506211,24.7436422 101.506211,26.6485893 L101.506211,37 L96.7618147,37 L96.7618147,26.5048197 C96.7618147,24.5998726 95.7913699,23.1621767 93.634826,23.1621767 C91.550167,23.1621767 90.3281254,24.7076998 90.3281254,26.6485893 L90.3281254,37 Z M114.517359,32.1837186 C114.517359,29.0207876 116.853615,27.2596101 119.800892,26.8283013 L124.149922,26.1813382 C125.156309,26.0375686 125.479791,25.534375 125.479791,24.9233542 C125.479791,23.6653703 124.509346,22.6230407 122.496572,22.6230407 C120.411913,22.6230407 119.261756,23.9529095 119.117986,25.4984326 L114.876783,24.5998726 C115.164323,21.832308 117.716233,18.7772041 122.460629,18.7772041 C128.067644,18.7772041 130.152303,21.9401352 130.152303,25.4984326 L130.152303,34.1964929 C130.152303,35.1309953 130.26013,36.3889792 130.367957,37 L125.982985,37 C125.875157,36.5327488 125.803273,35.5623041 125.803273,34.8793985 C124.904713,36.281152 123.21542,37.5031936 120.591625,37.5031936 C116.817673,37.5031936 114.517359,34.9512833 114.517359,32.1837186 Z M121.598012,33.9448962 C123.610786,33.9448962 125.479791,32.9744514 125.479791,29.8474628 L125.479791,29.05673 L121.490185,29.6677508 C120.268143,29.8474628 119.297698,30.5303683 119.297698,31.8961795 C119.297698,32.938509 120.052489,33.9448962 121.598012,33.9448962 Z M136.657877,26.1453958 L144.565204,26.1453958 C144.49332,24.3842182 143.343163,22.6589831 140.611541,22.6589831 C138.131515,22.6589831 136.765704,24.5279878 136.657877,26.1453958 Z M145.032456,30.7460227 L149.022062,31.9321219 C148.123502,34.9872257 145.319995,37.539136 140.970965,37.539136 C136.118741,37.539136 131.841596,34.0527234 131.841596,28.0862853 C131.841596,22.4433287 136.010914,18.7772041 140.539656,18.7772041 C146.0029,18.7772041 149.273659,22.2636168 149.273659,27.9425157 C149.273659,28.6254212 149.201774,29.3442692 149.201774,29.416154 L136.55005,29.416154 C136.657877,31.7524099 138.634709,33.4417026 141.006907,33.4417026 C143.235336,33.4417026 144.457377,32.3274882 145.032456,30.7460227 Z" id="mi-mae"></path>
                <g id="Page-1" transform="translate(0.037037, 0.703704)">
                    <path d="M11.1579667,0 C11.5995,0 12.0141741,0.169033592 12.3255222,0.476761413 C18.3419963,6.42246382 21.6558259,14.3407666 21.6558259,22.7726714 C21.6558259,31.205118 18.3419963,39.1234208 12.3255222,45.0693941 C12.0141741,45.3776637 11.6003222,45.5477808 11.1579667,45.5477808 C10.7175296,45.5477808 10.3025815,45.3776637 9.99068519,45.0693941 C9.39046296,44.4737132 9.39292963,43.3546783 9.98986296,42.7617063 C15.3830926,37.4309177 18.3537815,30.3328613 18.3537815,22.7726714 C18.3537815,15.2130233 15.3830926,8.11496684 9.99068519,2.78444918 C9.67851481,2.47672136 9.50667037,2.06741085 9.50667037,1.63046985 C9.50667037,1.19352885 9.67851481,0.784218346 9.99150741,0.475948751 C10.3017593,0.169033592 10.7167074,0 11.1579667,0 Z" id="Combined-Shape"></path>
                    <path d="M6.40590593,4.69677423 C6.84826148,4.69677423 7.26238741,4.86581072 7.57346148,5.17435121 C12.322343,9.86774225 14.9370096,16.1171092 14.9370096,22.772536 C14.9370096,29.4279627 12.322343,35.6773297 7.57346148,40.3709916 C7.26238741,40.6792612 6.84743926,40.8485657 6.40590593,40.8485657 C5.96464667,40.8485657 5.54969852,40.6792612 5.23780222,40.3709916 C4.92563185,40.0624511 4.75378741,39.652328 4.75378741,39.2170123 C4.75378741,38.7808839 4.92563185,38.3707608 5.23780222,38.0624912 C9.36343926,33.9848267 11.6355133,28.5540807 11.6355133,22.7717233 C11.6355133,16.9893658 9.36343926,11.5594326 5.23780222,7.48285164 C4.63675778,6.88798342 4.63840222,5.76515612 5.23862444,5.17353854 C5.54969852,4.86581072 5.96464667,4.69596447 6.40590593,4.69677423 Z" id="Combined-Shape"></path>
                    <path d="M2.81967407,9.87269948 C6.30068889,13.31405 8.21811111,17.8952938 8.21811111,22.7726172 C8.21811111,27.6507533 6.30068889,32.2328097 2.81967407,35.6733476 C2.17587407,36.3088489 1.12781481,36.3088489 0.484014815,35.6733476 C0.172118519,35.3631818 8.8817842e-16,34.9538713 8.8817842e-16,34.5185556 C8.8817842e-16,34.0816146 0.172118519,33.6714915 0.485659259,33.3632219 C3.34178519,30.5394941 4.91497037,26.777684 4.91497037,22.7726172 C4.91497037,18.7667378 3.34178519,15.0057404 0.484014815,12.1811999 C-0.11702963,11.590395 -0.11702963,10.4651297 0.484014815,9.87269948 C1.12781481,9.23719819 2.17587407,9.23719819 2.81967407,9.87269948 Z" id="Combined-Shape"></path>
                </g>
            </g>
        </g>
    </g>
</svg>