<?xml version="1.0" encoding="UTF-8"?>
<svg width="31px" height="31px" viewBox="0 0 31 31" version="1.1" xmlns="http://www.w3.org/2000/svg" xmlns:xlink="http://www.w3.org/1999/xlink">
    <title>icon / globe@2x</title>
    <defs>
        <path d="M15.5,0.276785714 C7.05803571,0.276785714 0.276785714,7.05803571 0.276785714,15.5 C0.276785714,23.9419643 7.05803571,30.7232143 15.5,30.7232143 C23.9419643,30.7232143 30.7232143,23.9419643 30.7232143,15.5 C30.7232143,7.05803571 23.9419643,0.276785714 15.5,0.276785714 Z M27.8169643,14.1160714 L22.28125,14.1160714 C22.0044643,10.2410714 20.7589286,6.64285714 18.5446429,3.45982143 C23.5267857,4.70535714 27.2633929,8.99553571 27.8169643,14.1160714 Z M11.4866071,16.8839286 L19.6517857,16.8839286 C19.2366071,20.6205357 17.8526786,24.21875 15.6383929,27.125 C13.1473214,24.21875 11.7633929,20.6205357 11.4866071,16.8839286 Z M11.4866071,14.1160714 C11.9017857,10.3794643 13.2857143,6.78125 15.5,3.875 C17.8526786,6.91964286 19.2366071,10.5178571 19.5133929,14.1160714 L11.4866071,14.1160714 Z M12.3169643,3.45982143 C10.2410714,6.64285714 8.99553571,10.2410714 8.71875,14.1160714 L3.18303571,14.1160714 C3.73660714,8.99553571 7.47321429,4.70535714 12.3169643,3.45982143 Z M3.18303571,16.8839286 L8.71875,16.8839286 C8.99553571,20.7589286 10.2410714,24.3571429 12.4553571,27.5401786 C7.47321429,26.2946429 3.73660714,22.0044643 3.18303571,16.8839286 Z M18.6830357,27.5401786 C20.7589286,24.3571429 22.0044643,20.7589286 22.4196429,16.8839286 L27.9553571,16.8839286 C27.2633929,22.0044643 23.5267857,26.2946429 18.6830357,27.5401786 Z" id="path-1"></path>
    </defs>
    <g id="screens" stroke="none" stroke-width="1" fill="none" fill-rule="evenodd">
        <g id="landing-page" transform="translate(-1070.000000, -1224.000000)">
            <g id="icon-/-globe" transform="translate(1070.000000, 1224.000000)">
                <mask id="mask-2" fill="white">
                    <use xlink:href="#path-1"></use>
                </mask>
                <use id="Mask" fill-opacity="0.999998374" fill="#14B675" fill-rule="nonzero" xlink:href="#path-1"></use>
            </g>
        </g>
    </g>
</svg>